<?xml version="1.0" encoding="UTF-8"?>
<svg xmlns="http://www.w3.org/2000/svg" xmlns:xlink="http://www.w3.org/1999/xlink" version="1.1" viewBox="0 0 460 460">
  <!-- Generator: Adobe Illustrator 29.3.1, SVG Export Plug-In . SVG Version: 2.1.0 Build 151)  -->
  <defs>
    <style>
      .st0 {
        fill: none;
      }

      .st1 {
        fill: #ef4838;
      }

      .st2 {
        fill: #a8dbdf;
      }

      .st3 {
        fill: #02b0d7;
      }

      .st4 {
        fill: #06b1d7;
      }

      .st5 {
        fill: #acdee3;
      }

      .st6 {
        fill: #f2d495;
      }

      .st7 {
        fill: #03b0d7;
      }

      .st8 {
        fill: #252222;
      }

      .st9 {
        fill: #f9b964;
      }

      .st10 {
        fill: #aadce1;
      }

      .st11 {
        fill: #eceeef;
      }

      .st12 {
        fill: #fbb963;
      }

      .st13 {
        fill: #ee4136;
      }

      .st14 {
        fill: #a0dae2;
      }

      .st15 {
        fill: #00afd7;
      }
    </style>
  </defs>
  <g id="Torso">
    <path class="st0" d=""/>
    <path class="st12" d="M172.7,392.2l111.8-.3c7.2.9,7.2,9.2,0,10.1h-110.1c-6.2-.8-7.5-7.1-1.7-9.8Z"/>
    <path class="st12" d="M270,421l-78,1c-7-2.2-6.5-8.7.4-10.1h77c5.5,2.1,6.3,6.7.5,9.1Z"/>
    <path class="st12" d="M210.5,441c-5-.8-1.9-9,0-9h37c2.6,0,3.8,7.7,0,9-11.1-1.3-26.4,1.8-37,0Z"/>
    <path class="st6" d="M270,421c-1.3.5-1.4.9-3.4,1.1-23.7,2.1-50.6-1.7-74.6,0l78-1Z"/>
    <g>
      <path class="st3" d="M210,236c13.6,0,27.4-.1,41,0s27.6-1.5,36.3.2,9.5,6.9,10.7,12.8v76c-3.5,14.9-15.2,13.3-28,13-26.7-.6-53.3-.6-80,0s-24.4,2.1-28-13v-77c1.2-4.8,4.3-10.6,9.7-11.8,8.4-1.9,28.5-.1,38.3-.2ZM178.5,249c0-2.3-1.9-4.2-4.2-4.2s-4.2,1.9-4.2,4.2,1.9,4.2,4.2,4.2,4.2-1.9,4.2-4.2ZM290.9,249c0-2.4-1.9-4.3-4.3-4.3s-4.3,1.9-4.3,4.3,1.9,4.3,4.3,4.3,4.3-1.9,4.3-4.3ZM186.7,250.2c-5,1.5-8.1,5-8.8,10.2-2,16.5,1.5,37,0,54,1.4,5.2,5.1,8.1,10.4,8.6,26.6,2.5,57-1.9,84.1,0,5.6-.8,9-4.9,9.5-10.5,1.1-11.9,1.4-40.5,0-52.1s-5.1-9.9-11.5-10.5c-26.3-2.6-57,1.8-83.8.3ZM177.9,323.1c-2.2-3.4-11.9,1.3-6.6,6.6s8.9-2.9,6.6-6.6ZM290.9,326.3c0-2.4-2-4.4-4.4-4.4s-4.4,2-4.4,4.4,2,4.4,4.4,4.4,4.4-2,4.4-4.4Z"/>
      <g>
        <path class="st15" d="M190,343c26.7.8,53.3.9,80,0,5.6-.2,11.4.1,17,0,.8,9.7-2.7,19.7-7.5,28s-7.5,12.4-14,13c-23.2,2.1-49.5-1.7-73.1,0-5.5-.2-11.4-9.6-13.8-14.2-4.4-8.1-6.9-17.7-6.6-26.9,6,.1,12-.2,18,0Z"/>
        <path class="st14" d="M270,338v5c-26.7.9-53.3.8-80,0v-5c26.7-.6,53.3-.6,80,0Z"/>
        <path class="st5" d="M251,226v10c-13.6-.1-27.4,0-41,0v-10c13.6,0,27.4,0,41,0Z"/>
        <g>
          <path class="st13" d="M225,48c-17.8-5-11.1-35.4,9.8-29.3,13.6,3.9,13.6,25.5.2,29.3s-5.7,1.2-10,0Z"/>
          <path class="st5" d="M235,48c.8,7.5,2.7,14.9,5,22-6.7,0-13.3,0-20,0l5-22c4.3,1.2,5.7,1.2,10,0Z"/>
        </g>
      </g>
      <path class="st8" d="M162,325c-2.7-11.3,0-24.3-1-36h1v36Z"/>
      <path class="st2" d="M186.7,250.2c26.8,1.5,57.5-2.8,83.8-.3,6.4.6,10.7,3.9,11.5,10.5,1.4,11.6,1.1,40.2,0,52.1s-3.9,9.7-9.5,10.5c-27.1-1.9-57.4,2.5-84.1,0s-9-3.4-10.4-8.6c1.4-17-2.1-37.4,0-54s3.8-8.8,8.8-10.2ZM277,286c0-7.9,2.9-27.8-5.9-30.6l-78.6-.5c-13.6-.3-9.4,21.3-9.4,31.1s0,3.3,0,5c.1,10.4-4,27.4,10.4,28.1l76.6-.5c9.9-2.6,6.8-19.3,7-27.5s0-3.3,0-5Z"/>
      <circle class="st14" cx="286.5" cy="326.3" r="4.4"/>
      <circle class="st14" cx="286.6" cy="249" r="4.3"/>
      <path class="st14" d="M177.9,323.1c2.3,3.6-2.4,10.9-6.6,6.6s4.4-10,6.6-6.6Z"/>
      <circle class="st14" cx="174.3" cy="249" r="4.2"/>
      <g>
        <path class="st12" d="M183,291c14.3,3.4,13.2-9.5,21.5-16,1.9,2.2,9.4,19.8,12.6,15.4s3.9-9.4,5.4-9.4c2.2,1.7,5,9.1,7.2,9.8,3,1,11.4-.8,13.2.3s5.7,13.7,6.8,13.9,3,0,3.9-1.1c2.6-3.2,6.3-16.5,8.5-21,1.8-1.8,4.3,6.5,6,7.5s6.4.2,9,.5c-.1,8.3,3,24.9-7,27.5l-76.6.5c-14.4-.6-10.3-17.7-10.4-28.1Z"/>
        <path class="st12" d="M277,286c-2-.2-5.4.6-7-.5s-3.8-12.4-7.4-11.5-10.6,24.5-12.5,23c-.9-3.5-2.6-10.2-6.5-11s-10.4.9-12.5-.5-5.7-15.7-10.4-11.5-4.3,10.8-6.5,9-6.2-12.4-7.7-14.7-2.7-2.1-4.4-.6c-2.4,2.2-8.5,16.4-10.9,17.9s-5.7.2-8,.5c0-9.8-4.2-31.4,9.4-31.1l78.6.5c8.8,2.7,5.9,22.6,5.9,30.6Z"/>
        <path class="st1" d="M183,286c2.3-.3,6.1.7,8-.5s8.5-15.7,10.9-17.9,3.2-1.2,4.4.6,7,14.1,7.7,14.7c2.2,1.8,4.9-7.6,6.5-9,4.7-4.2,8.4,10.2,10.4,11.5s9.4-.1,12.5.5,5.6,7.4,6.5,11c1.9,1.5,10.3-22.5,12.5-23,3.6-.8,6,10.6,7.4,11.5s5,.2,7,.5c0,1.7,0,3.3,0,5-2.6-.3-6.8.8-9-.5s-4.2-9.3-6-7.5c-2.2,4.5-5.9,17.8-8.5,21s-2.6,1.3-3.9,1.1-6-13.4-6.8-13.9c-1.8-1.1-10.1.7-13.2-.3s-5-8.1-7.2-9.8c-1.5,0-4.5,8.2-5.4,9.4-3.2,4.4-10.7-13.2-12.6-15.4-8.3,6.5-7.2,19.4-21.5,16,0-1.7,0-3.3,0-5Z"/>
      </g>
    </g>
    <path class="st0" d=""/>
  </g>
  <g id="Arms">
    <g>
      <g>
        <path class="st10" d="M162,289h-1c-.4-.9-.9-.6-1.6-.3-7.2,3.2-15.1,11.1-22.4,14.3-1-7.3-2.2-14.6-2-22-6.1,5.3-6.5,14.6-12,20-.8-.8-2.4-1.2-2.8-2.6l-21.2-35.4c6.6-.7,16.4-6.4,20-12,3.5,9.5,10,18.4,15.5,26.9l15.5-8.9,9,11c.2-8.5-.2-17.1,0-25.6s1.1-3.2,1.1-3.4c0,2.5-.1,5,0,7.5s-.8,3.7,1,3.5c-.2-5.2-.2-9.1,1-14v41Z"/>
        <path class="st7" d="M114,224c1.4-.8,5.7-2.8,6.9-1.9s2.8,9.1,3,10.5c.5,5-2.2,14.2-4.9,18.4s-13.4,11.3-20,12c-12,1.3-23.6-3.3-29-14.5,2.2-.8,4-2.4,6-3.5,12.7-6.9,25.5-14.1,38-21ZM102.9,247.9c3.9-2.5-1.3-11.8-6.6-6.6s2.9,8.9,6.6,6.6Z"/>
        <path class="st13" d="M110,221c-3.5-1.1-11.4-1.5-15-1,5.4-10.5-27.5-37.7.5-35,16.9,1.6,28.5,23.3,14.5,36Z"/>
        <path class="st13" d="M82,227c-1.8,1.8-6.5,10.6-7,13-20.3,5.7-33-27.8-16.7-37.2,13.9-8,12.4,21,23.7,24.2Z"/>
        <path class="st9" d="M110,221c.8.2,3.1,2.3,4,3-12.5,6.9-25.3,14.1-38,21-.3-.7-1-4.7-1-5,.5-2.4,5.2-11.2,7-13,2.7-2.7,9.3-6.5,13-7s11.5-.1,15,1Z"/>
        <path class="st3" d="M160,251c0,.2-1,1.5-1.1,3.4-.2,8.5.3,17.1,0,25.6l-9-11c-3-5.9-9.2-8.3-2.9-14.4s13-8.2,12.9-3.6Z"/>
        <path class="st8" d="M137,303c-7.2,3.1-8.7,3.2-14-2,5.5-5.4,5.9-14.7,12-20-.2,7.4,1,14.7,2,22Z"/>
        <path class="st14" d="M102.9,247.9c-3.7,2.3-10.9-2.4-6.6-6.6s10.5,4.1,6.6,6.6Z"/>
      </g>
      <g>
        <path class="st2" d="M298,249c.8,4,1.5,7.7,1,12,1.7.2.9-2.3,1-3.5.1-2.5,0-5,0-7.5,2.3,9.3.4,20.2,1,30,3.4-4.1,6.9-8.6,10-13,1.9,5.6,10.3,7.1,14.5,10.9l16.5-25.9c3.8,5.2,12.7,10.2,19,11-6.8,11.4-13.1,23.4-21,34l-14-18v25c-8.7-2.9-18.4-12-27-16-1,12.1,1.8,25.3-1,37v-76Z"/>
        <path class="st3" d="M311,267c-3.1,4.4-6.6,8.9-10,13-.6-9.8,1.3-20.7-1-30-.4-2.6,7.2,1.1,8,1.5,2.7,1.3,8.7,5.5,7.8,8.8s-4,5.5-4.9,6.7Z"/>
        <path class="st8" d="M340,297c-2.1,2.8-.8,4.8-5.8,6.7s-4.3,1.6-8.2.3v-25s14,18,14,18Z"/>
        <g>
          <path class="st13" d="M364,220c-5.3-.6-9.2,0-14,2-1-3.8-4.9-5.6-5.8-9.7-2.3-11.1,3.3-20.6,13.4-25.1,5.9-2.7,18.5-4.8,18.5,4.4s-14.4,19-12.1,28.5Z"/>
          <path class="st13" d="M385,240c-.7-3.5-4.5-10.4-7-13,11.2-2.6,10.6-33.5,24.4-23.9,15.2,10.7,2.9,42-17.4,36.9Z"/>
          <g>
            <path class="st7" d="M346,224c12.7,6.8,26.3,14.2,39,21,1.3.7,2.8,3.4,5,3.5-4.8,11-17.4,15.9-29,14.5s-15.2-5.8-19-11c-6.5-8.9-5.8-19.9-3-30,.5-.5,6,1.5,7,2ZM362.9,247.9c2-1.2,1.9-8.1-3.3-7.9-9.2.5-2.8,11.7,3.3,7.9Z"/>
            <path class="st9" d="M364,220c4.6.5,10.8,3.7,14,7s6.3,9.5,7,13-.2,3.4,0,5c-12.7-6.8-26.3-14.2-39-21,1.1-1.2,2.6-1.4,4-2,4.8-2,8.7-2.6,14-2Z"/>
            <path class="st14" d="M362.9,247.9c-6,3.8-12.5-7.4-3.3-7.9s5.2,6.6,3.3,7.9Z"/>
          </g>
        </g>
      </g>
    </g>
  </g>
  <g id="Head">
    <g>
      <path class="st7" d="M220,70c6.7,0,13.3,0,20,0,25.4,0,50.9-.3,76.3.2,12,3,17.6,11.2,18.7,23.3,3.1,35.1-2.3,74.5,0,110-.9,11.2-9.3,21-20.7,22.3-18.2,2.2-44.2,0-63.4.1s-27.4,0-41,0c-19.5,0-45.8,2.1-64.4-.1-11.5-1.4-18.5-9.4-20.6-20.4,3.1-36.4-4-79.4,0-115s8.5-17.6,17.7-20.3c25.7-.5,51.5-.2,77.3-.2ZM143.8,85c0-2.4-1.9-4.3-4.3-4.3s-4.3,1.9-4.3,4.3,1.9,4.3,4.3,4.3,4.3-1.9,4.3-4.3ZM323.9,85c0-2.4-1.9-4.3-4.3-4.3s-4.3,1.9-4.3,4.3,1.9,4.3,4.3,4.3,4.3-1.9,4.3-4.3ZM156.7,87.2c-9.2,2-14,9.2-14.8,18.2-2.4,27.4,1.8,58.2,0,86,.8,8.8,8.4,17.2,17.4,17.6h142.1c10.2-2.3,15.6-9.2,16.5-19.5,2.3-26.8-1.8-56.9,0-84.1-.8-8.9-5.4-15.4-14-18l-147.3-.3ZM143.8,212c0-2.4-1.9-4.3-4.3-4.3s-4.3,1.9-4.3,4.3,1.9,4.3,4.3,4.3,4.3-1.9,4.3-4.3ZM323.9,212c0-2.4-1.9-4.3-4.3-4.3s-4.3,1.9-4.3,4.3,1.9,4.3,4.3,4.3,4.3-1.9,4.3-4.3Z"/>
      <path class="st5" d="M156.7,87.2l147.3.3c8.7,2.6,13.2,9,14,18-1.8,27.2,2.3,57.2,0,84.1-.9,10.3-6.3,17.2-16.5,19.5h-142.1c-9.1-.3-16.7-8.8-17.4-17.5,1.8-27.8-2.4-58.6,0-86,.8-9.1,5.5-16.2,14.8-18.2ZM227.7,146.7c0-21.7-17.6-39.2-39.2-39.2s-39.2,17.6-39.2,39.2,17.6,39.2,39.2,39.2,39.2-17.6,39.2-39.2ZM312.2,146.7c0-21.7-17.6-39.2-39.2-39.2s-39.2,17.6-39.2,39.2,17.6,39.2,39.2,39.2,39.2-17.6,39.2-39.2ZM210,188c-8.9,3.4-9.1,13.7,0,17s2.1-.2,3,0c2.4.5,3.2.8,6,1s2,0,3,0c2.3.1,4.7,0,7,0s1.3,0,2,0c2,0,4,0,6,0s2,0,3,0c2.3-.1,4.9.3,7,0s2-.7,3-1c9.8-3.3,9.9-13.9,0-17s-1.8-.8-3-1c-2.1-.3-4.7,0-7,0s-2,0-3,0c-2,0-4,0-6,0s-1.3,0-2,0c-2.3,0-4.7,0-7,0s-2,0-3,0c-1.9,0-4.2-.2-6,0s-2,.6-3,1Z"/>
      <circle class="st14" cx="319.6" cy="85" r="4.3"/>
      <circle class="st14" cx="139.4" cy="85" r="4.3"/>
      <circle class="st14" cx="139.4" cy="212" r="4.3"/>
      <circle class="st2" cx="319.6" cy="212" r="4.3"/>
      <g>
        <path class="st12" d="M229,187v19c-2.3,0-4.7.1-7,0v-19c2.3,0,4.7,0,7,0Z"/>
        <path class="st9" d="M247,187v19c-2.1.3-4.7-.1-7,0v-19c2.3,0,4.9-.3,7,0Z"/>
        <path class="st9" d="M237,187v19c-2,0-4,0-6,0v-19c2,0,4,0,6,0Z"/>
        <path class="st9" d="M219,187v19c-2.8-.2-3.6-.5-6-1v-18c1.8-.2,4.1,0,6,0Z"/>
        <path class="st9" d="M250,205v-17c9.9,3.1,9.8,13.7,0,17Z"/>
        <path class="st9" d="M210,188v17c-9.1-3.3-8.9-13.6,0-17Z"/>
        <path class="st1" d="M240,187v19c-1,0-2,0-3,0v-19c1,0,2,0,3,0Z"/>
        <path class="st1" d="M222,187v19c-1,0-2,0-3,0v-19c1,0,2,0,3,0Z"/>
        <path class="st1" d="M250,188v17c-1,.3-1.8.8-3,1v-19c1.2.2,2,.7,3,1Z"/>
        <path class="st1" d="M213,187v18c-.9-.2-2.3.2-3,0v-17c1-.4,1.8-.8,3-1Z"/>
        <path class="st13" d="M231,187v19c-.7,0-1.3,0-2,0v-19c.7,0,1.3,0,2,0Z"/>
      </g>
      <g>
        <path class="st4" d="M227.7,146.7c0,21.7-17.6,39.2-39.2,39.2s-39.2-17.6-39.2-39.2,17.6-39.2,39.2-39.2,39.2,17.6,39.2,39.2ZM219,146.7c0-16.8-13.6-30.5-30.5-30.5s-30.5,13.6-30.5,30.5,13.6,30.5,30.5,30.5,30.5-13.6,30.5-30.5Z"/>
        <path class="st11" d="M219,146.7c0,16.8-13.6,30.5-30.5,30.5s-30.5-13.6-30.5-30.5,13.6-30.5,30.5-30.5,30.5,13.6,30.5,30.5ZM184.7,131.2c-18.1,3.3-15,32.7,4.6,31.7,21-1,19.8-36.2-4.6-31.7Z"/>
        <path class="st8" d="M184.7,131.2c24.4-4.5,25.7,30.7,4.6,31.7-19.6.9-22.7-28.4-4.6-31.7Z"/>
      </g>
      <g>
        <path class="st4" d="M312.2,146.7c0,21.7-17.6,39.2-39.2,39.2s-39.2-17.6-39.2-39.2,17.6-39.2,39.2-39.2,39.2,17.6,39.2,39.2ZM303.3,146.7c0-16.8-13.6-30.5-30.5-30.5s-30.5,13.6-30.5,30.5,13.6,30.5,30.5,30.5,30.5-13.6,30.5-30.5Z"/>
        <path class="st11" d="M303.3,146.7c0,16.8-13.6,30.5-30.5,30.5s-30.5-13.6-30.5-30.5,13.6-30.5,30.5-30.5,30.5,13.6,30.5,30.5ZM288.4,146.8c0-8.9-7.2-16-16-16s-16,7.2-16,16,7.2,16,16,16,16-7.2,16-16Z"/>
        <circle class="st8" cx="272.4" cy="146.8" r="16"/>
      </g>
    </g>
  </g>
</svg>